<svg width="119" height="25" viewBox="0 0 119 25" fill="none" xmlns="http://www.w3.org/2000/svg">
<g id="FB">
<path id="Shape" fill-rule="evenodd" clip-rule="evenodd" d="M55.8749 1.3125C57.5624 1.0625 59.1874 0.75 60.8749 0.5C60.8749 3.125 60.8749 5.6875 60.8749 8.25C61.5624 8.125 62.1874 7.9375 62.8749 7.8125C64.4999 7.625 66.1249 7.625 67.6874 8.125C69.1874 8.625 69.9999 9.6875 70.2499 11.1875C70.3749 12 70.4374 12.875 70.4374 13.75C70.4374 15.4375 70.4374 17.125 70.3749 18.75C70.3124 20.375 69.8124 21.8125 68.4999 22.875C67.6249 23.5625 66.5624 23.9375 65.4374 24.0625C63.2499 24.4375 61.0624 24.375 58.8749 24.0625C57.9999 23.9375 57.0624 23.8125 56.1874 23.6875C55.9374 23.6875 55.8749 23.5625 55.8749 23.3125C55.8749 23.1875 55.8749 23 55.8749 22.875C55.8749 15.8125 55.8749 8.8125 55.8749 1.75C55.8124 1.6875 55.8749 1.5 55.8749 1.3125ZM60.8749 20.125C61.8749 20.25 62.8124 20.3125 63.7499 20.125C64.7499 19.9375 65.2499 19.375 65.3124 18.375C65.3749 16.8125 65.3749 15.25 65.3749 13.6875C65.3749 12.625 64.8749 12.1875 63.8124 12C62.8124 11.8125 61.9374 12.125 61.0624 12.5625C60.9999 12.625 60.8749 12.8125 60.8749 12.875C60.8749 14.25 60.8749 15.6875 60.8749 17.0625C60.8749 18.0625 60.8749 19.0625 60.8749 20.125Z" fill="white"/>
<path id="Shape_2" fill-rule="evenodd" clip-rule="evenodd" d="M118.562 24.125C118.188 24.125 117.938 24.125 117.625 24.125C116.25 24.125 114.875 24.125 113.5 24.125C113.188 24.125 113.062 24 112.875 23.75C111.5 21.5 110.188 19.1875 108.812 16.9375C108.75 16.875 108.75 16.8125 108.625 16.6875C108.625 19.1875 108.625 21.625 108.625 24.0625C108.438 24.0625 108.312 24.0625 108.188 24.0625C106.75 24.0625 105.375 24.0625 103.938 24.0625C103.625 24.0625 103.5 24 103.5 23.625C103.5 22.0625 103.5 20.4375 103.5 18.875C103.5 13.1875 103.5 7.4375 103.5 1.75C103.5 1.25 103.5 1.25 104 1.1875C105.375 0.9375 106.75 0.75 108.125 0.5C108.25 0.5 108.375 0.5 108.5 0.4375C108.5 5.25 108.5 10 108.5 14.8125H108.562C108.688 14.625 108.812 14.4375 108.938 14.25C110.188 12.25 111.5 10.25 112.75 8.1875C112.938 7.9375 113.062 7.8125 113.375 7.8125C114.875 7.8125 116.375 7.8125 117.812 7.8125C118 7.8125 118.125 7.8125 118.375 7.8125C118.312 8 118.25 8.0625 118.188 8.1875C116.688 10.5625 115.188 12.9375 113.625 15.375C113.438 15.625 113.438 15.8125 113.625 16.125C115.188 18.6875 116.688 21.25 118.25 23.8125C118.438 23.9375 118.5 24 118.562 24.125Z" fill="white"/>
<path id="Shape_3" fill-rule="evenodd" clip-rule="evenodd" d="M53.8124 19.6875C53.8124 19.8125 53.8124 19.9375 53.8124 20C53.8124 21.125 53.8124 22.25 53.8124 23.4375C53.8124 23.6875 53.7499 23.75 53.4999 23.8125C51.2499 24.3125 48.9374 24.4375 46.6249 24.375C45.5624 24.3125 44.4999 24.125 43.4999 23.625C41.6874 22.75 40.6249 21.3125 40.3124 19.375C40.1874 18.6875 40.1874 17.9375 40.1874 17.25C40.1874 16 40.1249 14.75 40.1874 13.5C40.2499 12.125 40.6249 10.8125 41.5624 9.75C42.3749 8.8125 43.4374 8.3125 44.6249 8.0625C46.6249 7.625 48.6874 7.625 50.6249 8.3125C52.6874 9 53.8749 10.4375 54.1249 12.5625C54.3124 14.1875 54.3124 15.875 54.3749 17.625C54.1249 17.625 53.9999 17.625 53.8749 17.625C51.1249 17.625 48.3749 17.625 45.6249 17.625C45.3124 17.625 45.1874 17.75 45.2499 18C45.2499 18.25 45.2499 18.5 45.3124 18.75C45.4999 19.625 45.9374 20.0625 46.8124 20.125C47.8749 20.1875 48.8749 20.25 49.9374 20.1875C51.1874 20.125 52.4374 19.875 53.6874 19.75C53.6249 19.625 53.7499 19.6875 53.8124 19.6875ZM47.1874 14.125C47.4999 14.125 47.8749 14.125 48.1874 14.125C49.2499 14.125 49.2499 14.125 49.1874 13.0625C49.1249 12.3125 48.6874 11.8125 47.9999 11.6875C47.4999 11.625 46.9999 11.625 46.4999 11.6875C45.8749 11.75 45.4374 12.1875 45.3124 12.8125C45.2499 13.1875 45.2499 13.5625 45.1874 13.9375C45.1874 14.1875 45.2499 14.25 45.4999 14.25C46.0624 14.125 46.6249 14.125 47.1874 14.125Z" fill="white"/>
<path id="Shape_4" fill-rule="evenodd" clip-rule="evenodd" d="M102.312 16C102.25 17.125 102.25 18.25 102.125 19.3125C101.75 21.875 100.25 23.4375 97.8125 24C95.75 24.5 93.6875 24.5 91.6875 23.8125C89.5 23.125 88.25 21.5625 87.875 19.375C87.75 18.5625 87.75 17.6875 87.75 16.875C87.75 15.625 87.6875 14.4375 87.8125 13.1875C88.0625 10.3125 89.6875 8.50001 92.5 7.93751C94.5 7.50001 96.4375 7.56251 98.375 8.18751C100.5 8.87501 101.75 10.375 102.125 12.5625C102.25 13.75 102.188 14.875 102.312 16ZM97.1875 16.0625C97.1875 15.25 97.1875 14.5 97.1875 13.6875C97.1875 12.9375 96.6875 12.3125 95.9375 12.0625C95.3125 11.875 94.75 11.875 94.125 12C93.3125 12.1875 92.75 12.8125 92.75 13.5625C92.75 15.1875 92.75 16.8125 92.75 18.4375C92.75 19.1875 93.25 19.8125 94 20C94.4375 20.125 94.9375 20.125 95.375 20.125C96.5 20.0625 97.125 19.3125 97.1875 18.1875C97.1875 17.5 97.1875 16.75 97.1875 16.0625Z" fill="white"/>
<path id="Shape_5" fill-rule="evenodd" clip-rule="evenodd" d="M86.3749 16.1875C86.3124 17.25 86.3124 18.4375 86.0624 19.625C85.6249 22.0625 84.0624 23.5 81.6874 24.0625C79.7499 24.5 77.8124 24.5 75.8749 23.9375C73.6249 23.3125 72.2499 21.8125 71.8124 19.5C71.6874 18.9375 71.6874 18.375 71.6874 17.8125C71.6874 16.5 71.6249 15.125 71.6874 13.8125C71.7499 12.125 72.2499 10.5625 73.6249 9.37501C74.5624 8.56251 75.6249 8.18751 76.8124 8.00001C78.7499 7.68751 80.6874 7.68751 82.5624 8.37501C84.6249 9.12501 85.8124 10.625 86.1249 12.8125C86.3124 13.8125 86.3124 14.9375 86.3749 16.1875ZM76.8124 16C76.8124 16.75 76.8124 17.4375 76.8124 18.1875C76.8124 18.3125 76.8124 18.375 76.8124 18.5C76.8749 19.25 77.2499 19.8125 77.9999 20C78.4999 20.125 78.9999 20.1875 79.4999 20.125C80.5624 20.0625 81.2499 19.3125 81.2499 18.3125C81.2499 16.75 81.2499 15.25 81.2499 13.6875C81.2499 12.875 80.7499 12.25 79.9999 12C79.3749 11.8125 78.7499 11.8125 78.1249 12C77.3749 12.1875 76.8749 12.75 76.8749 13.5625C76.8124 14.4375 76.8124 15.25 76.8124 16Z" fill="white"/>
<path id="Shape_6" fill-rule="evenodd" clip-rule="evenodd" d="M20.25 23.3125C19.3125 23.625 18.375 23.9375 17.4375 24.1875C16.3125 24.4375 15.1875 24.5 14.0625 24.1875C12.3125 23.6875 11.3125 22.5 11 20.75C10.8125 19.875 10.8125 19 11 18.125C11.3125 16.5 12.375 15.5625 13.9375 15.25C14.6875 15.125 15.4375 15.0625 16.1875 15C17.1875 14.9375 18.1875 15 19.1875 15C19.5 15 19.5625 14.875 19.5625 14.625C19.5625 14.375 19.5625 14.125 19.5625 13.875C19.5625 12.5625 18.9375 12.3125 17.9375 12.25C16.3125 12.1875 14.6875 12.1875 13.0625 12.1875C12.9375 12.1875 12.75 12.1875 12.5625 12.1875C12.5625 11.8125 12.625 11.4375 12.625 11.0625C12.6875 10.125 12.8125 9.1875 12.9375 8.1875C12.9375 8.125 13.125 7.9375 13.1875 7.9375C15.3125 7.9375 17.375 7.9375 19.5 8C20.1875 8 20.875 8.1875 21.5 8.375C23.3125 8.875 24.1875 10.1875 24.4375 11.9375C24.5625 12.6875 24.5625 13.4375 24.5625 14.1875C24.5625 17.375 24.5625 20.5625 24.5625 23.6875C24.5625 24 24.5 24.125 24.125 24.125C23 24.125 21.875 24.125 20.75 24.125C20.4375 24.125 20.3125 24 20.25 23.6875C20.3125 23.625 20.3125 23.4375 20.25 23.3125ZM18.125 18.375C17.75 18.375 17.375 18.375 17 18.375C16.25 18.375 15.9375 18.75 16 19.4375C16 20.25 16.375 20.625 17.25 20.6875C18.0625 20.75 18.8125 20.5 19.5 20.125C19.625 20.0625 19.6875 19.875 19.6875 19.8125C19.6875 19.4375 19.6875 19.0625 19.6875 18.6875C19.6875 18.4375 19.5625 18.375 19.375 18.375C18.875 18.375 18.5 18.375 18.125 18.375Z" fill="white"/>
<path id="Shape_7" fill-rule="evenodd" clip-rule="evenodd" d="M11.4376 0.0625C11.4376 1.0625 11.4376 1.9375 11.4376 2.875C11.4376 3.25 11.4376 3.625 11.4376 4C11.4376 4.25 11.3751 4.3125 11.1251 4.3125C10.4376 4.3125 9.81261 4.3125 9.12511 4.3125C8.87511 4.3125 8.68761 4.375 8.43761 4.375C8.00011 4.5 7.75011 4.75 7.75011 5.1875C7.75011 6.0625 7.75011 6.9375 7.75011 7.875C8.93761 7.875 10.1876 7.875 11.4376 7.875C11.3751 8.5625 11.3126 9.1875 11.2501 9.8125C11.1876 10.4375 11.1251 11.0625 11.0626 11.6875C11.0626 12 10.9376 12.125 10.6251 12.125C9.68761 12.125 8.68761 12.125 7.68761 12.125C7.68761 16.125 7.68761 20.125 7.68761 24.125C6.00011 24.125 4.37511 24.125 2.68761 24.125C2.68761 23.9375 2.62511 23.8125 2.62511 23.625C2.62511 19.9375 2.62511 16.25 2.62511 12.5625C2.62511 12.25 2.56261 12.125 2.18761 12.125C1.50011 12.1875 0.875113 12.125 0.125113 12.125C0.125113 11.9375 0.125113 11.8125 0.125113 11.6875C0.125113 10.625 0.125113 9.5 0.125113 8.4375C0.125113 7.8125 0.062613 7.875 0.625113 7.875C1.18761 7.875 1.68761 7.875 2.25011 7.875C2.50011 7.875 2.56261 7.8125 2.56261 7.5625C2.56261 6.5625 2.56261 5.5625 2.62511 4.5625C2.68761 3.3125 3.06261 2.1875 4.00011 1.25C4.68761 0.5625 5.56261 0.1875 6.50011 0.125C8.12511 0.0625 9.75011 0.0625 11.4376 0.0625Z" fill="white"/>
<path id="Shape_8" fill-rule="evenodd" clip-rule="evenodd" d="M38.7498 12.4375C37.9373 12.3125 37.1873 12.1875 36.4373 12.0625C35.1873 11.875 33.8748 11.75 32.6248 12C31.8123 12.1875 31.3748 12.6875 31.3123 13.5C31.2498 15.1875 31.3123 16.8125 31.3123 18.5C31.3123 19.25 31.7498 19.8125 32.4998 19.9375C33.4373 20.0625 34.3748 20.125 35.2498 20.0625C36.3123 20 37.3123 19.75 38.3748 19.625C38.4373 19.625 38.4998 19.625 38.6248 19.625C38.6248 19.6875 38.6873 19.8125 38.6873 19.875C38.6873 21.0625 38.6873 22.1875 38.6873 23.375C38.6873 23.625 38.6248 23.6875 38.3748 23.75C36.4998 24.1875 34.6248 24.4375 32.6873 24.3125C30.9998 24.1875 29.3748 23.8125 28.0623 22.625C26.9373 21.625 26.3123 20.375 26.2498 18.9375C26.1248 17.1875 26.0623 15.375 26.1873 13.625C26.3123 11.625 27.1248 9.87499 28.9373 8.81249C29.9373 8.18749 31.0623 7.93749 32.1873 7.81249C34.2498 7.56249 36.3123 7.87499 38.3123 8.31249C38.4373 8.31249 38.6248 8.49999 38.6248 8.56249C38.7498 9.81249 38.7498 11.125 38.7498 12.4375Z" fill="white"/>
</g>
</svg>
