<svg width="21" height="20" viewBox="0 0 21 20" fill="none" xmlns="http://www.w3.org/2000/svg">
<g id="Group 2">
<path id="Shape" d="M20.4898 2.14894L18.6311 0.29277C18.4392 0.100855 18.1868 0.00468445 17.9349 0.00468445C17.6826 0.00468445 17.4303 0.100429 17.2388 0.292344L15.752 1.7749L19.003 5.02L20.4898 3.53788C20.8741 3.15405 20.8741 2.53149 20.4898 2.14894Z" fill="#DFDFDF"/>
<path id="Shape_2" d="M6.10059 11.4085L9.35165 14.654L18.307 5.71532L15.0559 2.46979L6.10059 11.4085Z" fill="#DFDFDF"/>
<path id="Shape_3" d="M5.39912 12.1026L4.70508 16.04L8.65018 15.3477L5.39912 12.1026Z" fill="#DFDFDF"/>
<path id="Shape_4" d="M14.386 17.794H2.12809V5.5366H10.7787L12.9106 3.40894H1.37617C0.619149 3.40894 0 4.02808 0 4.78511V18.546C0 19.3026 0.619149 19.9217 1.37617 19.9217H15.1374C15.8936 19.9217 16.5128 19.3026 16.5128 18.546V8.70723L14.3851 10.8315L14.386 17.794Z" fill="#DFDFDF"/>
</g>
</svg>
