<svg width="22" height="22" viewBox="0 0 22 22" fill="none" xmlns="http://www.w3.org/2000/svg">
<circle cx="8" cy="7" r="1" fill="#7A7A7A"/>
<path fill-rule="evenodd" clip-rule="evenodd" d="M0.0213179 21.4292C0.0189492 21.4268 0.0189492 21.4221 0.0189492 21.4126V21.3747C0.0189492 21.3463 0.0142119 21.3131 0.00947459 21.2799C0.0047373 21.2468 0 21.2136 0 21.1852V16.0689V0.776916C0 0.341085 0.341085 0 0.776916 0H21.2231C21.6589 0 22 0.341085 22 0.776916V16.1068V21.2231C22 21.6589 21.6589 22 21.2231 22H0.720069C0.663221 22 0.606374 22 0.549526 21.9811C0.549526 21.9811 0.530577 21.9621 0.511628 21.9621C0.492679 21.9432 0.492679 21.9432 0.47373 21.9432C0.464255 21.9337 0.450043 21.9289 0.435831 21.9242C0.421619 21.9195 0.407407 21.9147 0.397933 21.9053C0.397933 21.8863 0.378984 21.8863 0.378984 21.8863L0.360034 21.8674C0.35056 21.8579 0.341085 21.8531 0.331611 21.8484C0.322136 21.8437 0.312661 21.8389 0.303187 21.8295C0.303187 21.8295 0.303187 21.8105 0.284238 21.8105L0.246339 21.7726L0.22739 21.7537C0.217916 21.7347 0.203704 21.7205 0.189492 21.7063C0.17528 21.6921 0.161068 21.6779 0.151593 21.6589L0.132644 21.64C0.132644 21.6305 0.127907 21.6258 0.12317 21.621C0.118432 21.6163 0.113695 21.6115 0.113695 21.6021C0.113695 21.5926 0.108958 21.5879 0.104221 21.5831C0.0994832 21.5784 0.0947459 21.5736 0.0947459 21.5642C0.0852713 21.5452 0.0757967 21.5215 0.0663221 21.4978C0.0568475 21.4742 0.047373 21.4505 0.0378984 21.4315C0.0284238 21.4315 0.0236865 21.4315 0.0213179 21.4292ZM3.37295 20.4272H20.503V16.41L16.031 12.1464L3.37295 20.4272ZM1.55383 1.55383H20.503V14.2687L16.6563 10.5926C16.391 10.3463 15.9931 10.3084 15.6899 10.4978L12.0706 12.8854L9.55039 10.3463C9.2851 10.081 8.88717 10.0431 8.58398 10.2326L1.55383 14.6667V1.55383ZM8.88717 11.8811L1.55383 16.5047V19.764L10.7442 13.7571L8.88717 11.8811Z" fill="#7A7A7A"/>
</svg>
