<svg width="18" height="16" viewBox="0 0 18 16" fill="none" xmlns="http://www.w3.org/2000/svg">
<path fill-rule="evenodd" clip-rule="evenodd" d="M16.2593 1.22162C16.9261 1.78627 17.4304 2.50705 17.7174 3.30607C17.9283 3.89289 18.0179 4.52282 17.9836 5.17836C17.9221 6.3546 17.4755 7.6131 16.6181 9.02575C15.1274 11.4821 12.74 13.695 9.3197 15.791L8.98751 15.9945L8.65534 15.791C5.87467 14.087 3.78371 12.3035 2.26299 10.3388C1.56358 9.43511 0.642508 8.03592 0.226378 6.50195C0.0163102 5.72759 -0.0479755 4.98349 0.0352653 4.29033C0.130335 3.49884 0.417894 2.7654 0.889971 2.1104C1.3507 1.47112 1.97434 0.940416 2.69342 0.575659C3.41304 0.210633 4.21685 0.0176652 5.01774 0.0176652H5.01776C5.97894 0.0176652 6.91384 0.282624 7.72143 0.783891C8.20732 1.08551 8.63431 1.46383 8.98619 1.90128C9.33816 1.46299 9.76544 1.08395 10.2518 0.781741C11.0598 0.279739 11.9954 0.0144043 12.9573 0.0144043C13.287 0.0144043 13.6168 0.0456876 13.9376 0.107394C14.7889 0.271157 15.5918 0.656465 16.2593 1.22162ZM3.25976 9.6046C4.62718 11.3713 6.50331 12.9927 8.98755 14.5532C12.0574 12.6255 14.2042 10.6117 15.5434 8.40507C16.2951 7.1664 16.6853 6.09064 16.7362 5.11633C16.7622 4.61947 16.6958 4.14599 16.5388 3.70908C16.3234 3.1097 15.9437 2.56772 15.4406 2.14176C14.9373 1.71562 14.334 1.4255 13.6959 1.30277C13.4546 1.25635 13.206 1.23281 12.9573 1.23281C12.2334 1.23281 11.53 1.43219 10.9228 1.80941C10.3309 2.17711 9.8554 2.69572 9.54759 3.30917L8.98729 4.42573L8.426 3.30963C8.11791 2.69692 7.64238 2.17899 7.05088 1.81183C6.44406 1.43516 5.74101 1.23605 5.01776 1.23605C4.41656 1.23605 3.81207 1.38148 3.26963 1.65664C2.72739 1.93168 2.25781 2.33091 1.91169 2.81114C1.56034 3.29863 1.3464 3.84399 1.27576 4.43211C1.21081 4.97279 1.26399 5.56431 1.43379 6.19028C1.79803 7.53297 2.6278 8.7881 3.25976 9.6046Z" fill="#747474"/>
</svg>
