<svg width="17" height="15" viewBox="0 0 17 15" fill="none" xmlns="http://www.w3.org/2000/svg">
<path fill-rule="evenodd" clip-rule="evenodd" d="M16.8116 1.75C16.3422 2.48684 15.7555 3.14309 15.0835 3.6727C15.0942 3.83388 15.0942 3.99507 15.0942 4.15625C15.0942 9.07237 11.6273 14.7368 5.29096 14.7368C3.33885 14.7368 1.52542 14.1266 0 13.0674C0.277349 13.102 0.54403 13.1135 0.832046 13.1135C2.4428 13.1135 3.92555 12.5263 5.10962 11.5247C3.59487 11.4901 2.32546 10.4194 1.8881 8.94572C2.10145 8.98026 2.31479 9.00329 2.53881 9.00329C2.84816 9.00329 3.15751 8.95724 3.44552 8.87665C1.86677 8.53125 0.682704 7.03454 0.682704 5.22697C0.682704 5.21546 0.682704 5.19243 0.682704 5.18092C1.1414 5.45724 1.67476 5.62993 2.24012 5.65296C1.31207 4.9852 0.704039 3.84539 0.704039 2.55592C0.704039 1.86513 0.874715 1.23191 1.1734 0.679276C2.86949 2.93586 5.41897 4.40954 8.27779 4.57072C8.22445 4.29441 8.19245 4.00658 8.19245 3.71875C8.19245 1.66941 9.72854 0 11.638 0C12.63 0 13.5261 0.449013 14.1554 1.17434C14.9342 1.01316 15.6809 0.702303 16.3422 0.276316C16.0862 1.1398 15.5422 1.86513 14.8275 2.32566C15.5209 2.24507 16.1929 2.03783 16.8116 1.75Z" fill="white"/>
</svg>
