<svg width="19" height="7" viewBox="0 0 19 7" fill="none" xmlns="http://www.w3.org/2000/svg">
<path d="M0.468359 6V0.204H1.36836V4.632L4.40436 0.204H5.29236V6H4.39236V1.488L1.33236 6H0.468359ZM6.40545 5.4C6.67745 5.4 6.90145 5.224 7.07745 4.872C7.25345 4.52 7.39745 3.916 7.50945 3.06L7.88145 0.204H11.9135V6H11.0135V0.996H8.67345L8.40945 3.168C8.34545 3.712 8.25745 4.172 8.14545 4.548C8.03345 4.924 7.89345 5.232 7.72545 5.472C7.56545 5.704 7.37345 5.876 7.14945 5.988C6.93345 6.092 6.68545 6.144 6.40545 6.144V5.4ZM13.7105 6V0.204H14.6105V4.632L17.6465 0.204H18.5345V6H17.6345V1.488L14.5745 6H13.7105Z" fill="#BCBCBC"/>
</svg>
